# xmcd
#
# Track frame offsets:
#	150
#	20698
#	34635
#	55753
#	72438
#	91690
#	108125
#	121913
#	139988
#	162795
#	182745
#
# Disc length: 2709 seconds
#
# Revision: 1
# Processed by: cddbd v1.5PL3 Copyright (c) Steve Scherf et al.
# Submitted via: CDmax 2.0
#
DISCID=8a0a930b
DTITLE=Terry Allen - Smokin' The Dummy
DYEAR=1992
DGENRE=Country
TTITLE0=The Heart of California (for Lowell George)
TTITLE1=Cocaine Cowboy
TTITLE2=Whatever Happened to Jesus (and Maybeline)?
TTITLE3=Helena, Montana
TTITLE4=Texas Tears
TTITLE5=Cajun Roll
TTITLE6=Feelin' Easy
TTITLE7=The Night Cafe
TTITLE8=Roll, Truck, Roll
TTITLE9=Red Bird
TTITLE10=The Lubbock Tornado
EXTD=
EXTT0=
EXTT1=
EXTT2=
EXTT3=
EXTT4=
EXTT5=
EXTT6=
EXTT7=
EXTT8=
EXTT9=
EXTT10=
PLAYORDER=
